<svg width="1400" height="600" viewBox="0 0 140 60" fill="none" xmlns="http://www.w3.org/2000/svg">
    <path fill="none" d="M0 0h140v60H0z"/>
    <path fill="none" d="M0 0h140v60H0z"/>
    <mask id="b" maskUnits="userSpaceOnUse" x="6" y="6" width="130" height="51" fill="#000">
        <path fill="#fff" d="M6 6h130v51H6z"/>
        <path fill-rule="evenodd" clip-rule="evenodd" d="M68.5 37.5 71 33v-2h3.5v-1h.5l1 1.5v.5l-2.5 4v14L80 31h1l.5-3H71V11l-5-3-1 2 2.5 26 1 1.5Zm13-4.5 2.5-1 2-11-3-5.5L81.5 33ZM81 51l-3 1 9.5-14L90 27.5l3.5 4.5-2.5 7.5L81 51Zm30-10-2-2.5 18-6.5h3.5L111 41ZM9 25l4.5 6 5 1 1.5 1.5 5 1.5 2.5-1 .5.5-1.5 1.5 2 4.5-6.5.5-5 6 20.5-5-1-2h-5l-2-4 3.5-2.5-1-2.5-23-6Zm49.5 12.5-2-3.5 6.5 1 1.5 2-6 .5Zm5.5 8L60 43l11.5-4 1.5 1-9 5.5ZM93 40l-9 8.5h3l7.5-5.5-.5-.5 2.5-1.5 1-2h2.5l-5.5 10 .5.5 3.5-3 2-3.5 3.5-2.5-.5-1.5 7.5-2.5 1.5-2h-6l-1.5 1-.5-.5 3-2 9-17.5v-1l1.5-2-2-.5-5.5 4-8 17-2 1.5h-6L93 40Zm24.5-8.5-9 1.5 3-4 4.5.5 1.5 2ZM39.5 44 30 24l4 3.5 1.5.5 1 2.5 5 1-4-5.5-6-14.5 1-1L39 17l5 15 2 .5-1.313-4.313L52.5 36v4H62l-4.5 4.5-1-.5v4l-1 2-1-7H56l1.5-1h-5v3.5L51 49l-4-14-9-1 2.5 6.5-1 3.5Zm13-9v-2.579L43.5 22l-1-1 1.75 5.75L52.5 35ZM46 22.25V24l6.5 7.429V28l-3-4.5-3.5-1.25ZM83 33.5l-1 4 2 2.5 2.5-3.5L89 26l-2-3-2 9.5-2 1Z"/>
    </mask>
    <path fill-rule="evenodd" clip-rule="evenodd" d="M68.5 37.5 71 33v-2h3.5v-1h.5l1 1.5v.5l-2.5 4v14L80 31h1l.5-3H71V11l-5-3-1 2 2.5 26 1 1.5Zm13-4.5 2.5-1 2-11-3-5.5L81.5 33ZM81 51l-3 1 9.5-14L90 27.5l3.5 4.5-2.5 7.5L81 51Zm30-10-2-2.5 18-6.5h3.5L111 41ZM9 25l4.5 6 5 1 1.5 1.5 5 1.5 2.5-1 .5.5-1.5 1.5 2 4.5-6.5.5-5 6 20.5-5-1-2h-5l-2-4 3.5-2.5-1-2.5-23-6Zm49.5 12.5-2-3.5 6.5 1 1.5 2-6 .5Zm5.5 8L60 43l11.5-4 1.5 1-9 5.5ZM93 40l-9 8.5h3l7.5-5.5-.5-.5 2.5-1.5 1-2h2.5l-5.5 10 .5.5 3.5-3 2-3.5 3.5-2.5-.5-1.5 7.5-2.5 1.5-2h-6l-1.5 1-.5-.5 3-2 9-17.5v-1l1.5-2-2-.5-5.5 4-8 17-2 1.5h-6L93 40Zm24.5-8.5-9 1.5 3-4 4.5.5 1.5 2ZM39.5 44 30 24l4 3.5 1.5.5 1 2.5 5 1-4-5.5-6-14.5 1-1L39 17l5 15 2 .5-1.313-4.313L52.5 36v4H62l-4.5 4.5-1-.5v4l-1 2-1-7H56l1.5-1h-5v3.5L51 49l-4-14-9-1 2.5 6.5-1 3.5Zm13-9v-2.579L43.5 22l-1-1 1.75 5.75L52.5 35ZM46 22.25V24l6.5 7.429V28l-3-4.5-3.5-1.25ZM83 33.5l-1 4 2 2.5 2.5-3.5L89 26l-2-3-2 9.5-2 1Z" fill="url(#a)"/>
    <path d="m71 33 .874.486.126-.227V33h-1Zm-2.5 4.5-.832.555.91 1.364.796-1.433-.874-.486ZM71 31v-1h-1v1h1Zm3.5 0v1h1v-1h-1Zm0-1v-1h-1v1h1Zm.5 0 .832-.555-.297-.445H75v1Zm1 1.5h1v-.303l-.168-.252L76 31.5Zm0 .5.848.53.152-.243V32h-1Zm-2.5 4-.848-.53-.152.243V36h1Zm0 14h-1v6.013l1.946-5.69L73.5 50ZM80 31v-1h-.715l-.231.676L80 31Zm1 0v1h.847l.14-.836L81 31Zm.5-3 .986.164L82.68 27H81.5v1ZM71 28h-1v1h1v-1Zm0-17h1v-.566l-.486-.291L71 11Zm-5-3 .514-.857-.925-.556-.483.966L66 8Zm-1 2-.894-.447-.129.257.028.286L65 10Zm2.5 26-.995.096.024.25.139.209L67.5 36ZM84 32l.371.928.514-.205.099-.544L84 32Zm-2.5 1-.996-.085-.139 1.616 1.506-.602L81.5 33ZM86 21l.984.179.063-.348-.17-.31L86 21Zm-3-5.5.878-.479-1.59-2.916-.284 3.31.996.085ZM78 52l-.828-.562-1.658 2.445 2.802-.934L78 52Zm3-1 .316.949.26-.087.179-.206L81 51Zm6.5-13 .828.562.102-.152.043-.178L87.5 38ZM90 27.5l.79-.614-1.28-1.645-.483 2.027.973.232Zm3.5 4.5.949.316.169-.508-.329-.422L93.5 32ZM91 39.5l.755.656.13-.15.064-.19L91 39.5Zm18-1-.34-.94-1.314.474.873 1.09.781-.624Zm2 2.5-.781.625.489.611.711-.328L111 41Zm16-9v-1h-.175l-.165.06.34.94Zm3.5 0 .419.908L135.053 31H130.5v1Zm-117-1-.8.6.23.306.374.075L13.5 31ZM9 25l.252-.968-2.77-.722L8.2 25.6 9 25Zm9.5 7 .707-.707-.214-.214-.297-.06L18.5 32Zm1.5 1.5-.707.707.178.178.242.073L20 33.5Zm5 1.5-.287.958.334.1.324-.13L25 35Zm2.5-1 .707-.707-.466-.466-.612.245.371.928Zm.5.5.707.707.707-.707-.707-.707L28 34.5ZM26.5 36l-.707-.707-.486.486.28.627L26.5 36Zm2 4.5.077.997 1.412-.109-.575-1.294-.914.406ZM22 41l-.077-.997-.42.032-.271.325L22 41Zm-5 6-.768-.64-1.942 2.33 2.947-.718L17 47Zm20.5-5 .237.971 1.218-.297-.56-1.121L37.5 42Zm-1-2 .894-.447-.276-.553H36.5v1Zm-5 0-.894.447.276.553h.618v-1Zm-2-4-.581-.814-.696.497.383.764L29.5 36Zm3.5-2.5.581.814.639-.456-.291-.73L33 33.5ZM32 31l.928-.371-.187-.47-.489-.127L32 31Zm24.5 3 .152-.988-2.049-.316 1.029 1.8L56.5 34Zm2 3.5-.868.496.316.553.635-.053-.083-.996ZM63 35l.8-.6-.245-.326-.403-.062L63 35Zm1.5 2 .083.996 1.802-.15L65.3 36.4l-.8.6ZM60 43l-.328-.944-1.972.685 1.77 1.107L60 43Zm4 2.5-.53.848.524.328.528-.323L64 45.5Zm7.5-6.5.555-.832-.414-.276-.47.163.329.945Zm1.5 1 .522.853 1.336-.816-1.303-.87L73 40Zm11 8.5-.687-.727-1.828 1.727H84v-1Zm9-8.5.687.727.204-.193.074-.27L93 40Zm-6 8.5v1h.327l.264-.194L87 48.5Zm7.5-5.5.591.806.94-.689-.824-.824L94.5 43Zm-.5-.5-.514-.858-1.099.66.906.905L94 42.5Zm2.5-1.5.514.858.25-.15.13-.26L96.5 41Zm1-2v-1h-.618l-.276.553.894.447Zm2.5 0 .876.482.815-1.482H100v1Zm-5.5 10-.876-.482-.362.658.53.531L94.5 49Zm.5.5-.707.707.655.655.703-.603L95 49.5Zm3.5-3 .65.76.132-.113.086-.15-.868-.497Zm2-3.5-.581-.814-.178.128-.11.19.869.496Zm3.5-2.5.581.814.601-.43-.233-.7-.949.316Zm-.5-1.5-.316-.949-.949.316.316.95.949-.317Zm7.5-2.5.316.949.297-.1.187-.249-.8-.6Zm1.5-2 .8.6 1.2-1.6h-2v1Zm-6 0v-1h-.303l-.252.168.555.832Zm-1.5 1-.707.707.58.58.682-.455L105 35.5Zm-.5-.5-.555-.832-1.015.677.863.862.707-.707Zm3-2 .555.832.216-.144.118-.23L107.5 33Zm9-17.5.889.457.111-.215V15.5h-1Zm0-1-.8-.6-.2.267v.333h1Zm1.5-2 .8.6.904-1.205-1.461-.365-.243.97Zm-2-.5.243-.97-.454-.113-.377.274L116 12Zm-5.5 4-.588-.809-.208.151-.109.232.905.426Zm-8 17 .6.8.199-.15.106-.224L102.5 33Zm-2 1.5v1h.333l.267-.2-.6-.8Zm-6 0v-1h-.764l-.2.737.964.263Zm14-1.5-.8-.6-1.498 1.997 2.462-.41L108.5 33Zm9-1.5.164.986 1.623-.27-.987-1.316-.8.6Zm-6-2.5.11-.994-.567-.063-.343.457.8.6Zm4.5.5.8-.6-.26-.346-.43-.048-.11.994ZM30 24l.659-.753-3.633-3.178 2.07 4.36L30 24Zm9.5 20-.903.43 1.137 2.392.727-2.547L39.5 44ZM34 27.5l-.658.753.15.132.192.064L34 27.5Zm1.5.5.928-.371-.172-.431-.44-.147L35.5 28Zm1 2.5-.928.371.2.503.532.107.196-.981Zm5 1-.196.98 2.51.503-1.505-2.071-.809.588Zm-4-5.5-.924.382.045.11.07.096L37.5 26Zm-6-14.5-.707-.707-.472.472.255.617.924-.382Zm1-1 .707-.707-.707-.707-.707.707.707.707ZM39 17l.949-.316-.075-.224-.167-.167L39 17Zm5 15-.949.316.174.521.532.133L44 32Zm2 .5-.242.97 1.713.428-.514-1.69L46 32.5Zm-1.313-4.313.708-.707-2.829-2.828 1.165 3.827.956-.291ZM52.5 36h1v-.414l-.293-.293L52.5 36Zm0 4h-1v1h1v-1Zm9.5 0 .707.707L64.414 39H62v1Zm-4.5 4.5-.447.894.645.323.51-.51-.708-.707Zm-1-.5.447-.894-1.447-.724V44h1Zm0 4 .894.447.106-.21V48h-1Zm-1 2-.99.141.453 3.17 1.431-2.864L55.5 50Zm-1-7v-1h-1.153l.163 1.141.99-.141Zm1.5 0v1h.303l.252-.168L56 43Zm1.5-1 .555.832L60.803 41H57.5v1Zm-5 0v-1h-1v1h1Zm0 3.5.92.394.08-.189V45.5h-1ZM51 49l-.962.275.773 2.704 1.108-2.585L51 49Zm-4-14 .962-.275-.185-.645-.667-.074L47 35Zm-9-1 .11-.994-1.633-.181.59 1.534L38 34Zm2.5 6.5.962.275.091-.322-.12-.312-.933.359Zm12-8.079h1v-.372l-.243-.282-.757.654Zm0 2.579-.707.707 1.707 1.707V35h-1Zm-9-13 .757-.654-.024-.027-.026-.026L43.5 22Zm-1-1 .707-.707-2.828-2.828 1.164 3.826L42.5 21Zm1.75 5.75-.957.291.073.24.177.176.707-.707ZM46 24h-1v.376l.247.282L46 24Zm0-1.75.336-.942L45 20.831v1.419h1Zm6.5 9.179-.753.658L53.5 34.09v-2.661h-1Zm0-3.429h1v-.303l-.168-.252L52.5 28Zm-3-4.5.832-.555-.184-.275-.312-.112-.336.942Zm32.5 14-.97-.242-.12.48.31.387.78-.625Zm1-4-.447-.894-.412.205-.111.447.97.242Zm1 6.5-.78.625.825 1.032.769-1.076L84 40Zm2.5-3.5.814.581.114-.159.045-.19-.973-.232ZM89 26l.973.232.1-.424-.24-.363L89 26Zm-2-3 .832-.555-1.32-1.98-.49 2.329L87 23Zm-2 9.5.447.894.432-.215.1-.473L85 32.5Zm-14.874.014-2.5 4.5 1.748.972 2.5-4.5-1.748-.972ZM70 31v2h2v-2h-2Zm4.5-1H71v2h3.5v-2Zm-1 0v1h2v-1h-2Zm1.5-1h-.5v2h.5v-2Zm1.832 1.945-1-1.5-1.664 1.11 1 1.5 1.664-1.11ZM77 32v-.5h-2v.5h2Zm-2.652 4.53 2.5-4-1.696-1.06-2.5 4 1.696 1.06ZM74.5 50V36h-2v14h2Zm4.554-19.324-6.5 19 1.892.648 6.5-19-1.892-.648ZM81 30h-1v2h1v-2Zm-.486-2.164-.5 3 1.972.328.5-3-1.972-.328ZM71 29h10.5v-2H71v2Zm-1-18v17h2V11h-2Zm-4.514-2.143 5 3 1.028-1.714-5-3-1.028 1.714Zm.408 1.59 1-2-1.788-.894-1 2 1.788.894Zm2.601 25.457-2.5-26-1.99.192 2.5 26 1.99-.192Zm.837 1.041-1-1.5-1.664 1.11 1 1.5 1.664-1.11Zm14.297-5.873-2.5 1 .742 1.856 2.5-1-.742-1.856Zm1.387-10.25-2 11 1.968.357 2-11-1.968-.358Zm-2.894-4.843 3 5.5 1.756-.958-3-5.5-1.756.958Zm.374 17.106 1.5-17.5-1.992-.17-1.5 17.5 1.992.17Zm-4.18 19.864 3-1-.632-1.898-3 1 .632 1.898Zm8.356-15.51-9.5 14 1.656 1.123 9.5-14-1.656-1.123Zm2.355-10.17-2.5 10.5 1.946.463 2.5-10.5-1.946-.464Zm5.262 4.117-3.5-4.5-1.578 1.228 3.5 4.5 1.578-1.228Zm-2.34 8.43 2.5-7.5-1.898-.632-2.5 7.5 1.898.632Zm-10.194 11.84 10-11.5-1.51-1.312-10 11.5 1.51 1.312Zm26.464-12.531 2 2.5 1.562-1.25-2-2.5-1.562 1.25Zm18.441-8.066-18 6.5.68 1.882 18-6.5-.68-1.882ZM130.5 31H127v2h3.5v-2Zm-19.081 10.908 19.5-9-.838-1.816-19.5 9 .838 1.816ZM14.3 30.4l-4.5-6-1.6 1.2 4.5 6 1.6-1.2Zm4.396.62-5-1-.392 1.96 5 1 .392-1.96Zm2.011 1.773-1.5-1.5-1.414 1.414 1.5 1.5 1.414-1.414Zm4.58 1.25-5-1.5-.574 1.915 5 1.5.574-1.916Zm1.842-.971-2.5 1 .742 1.856 2.5-1-.742-1.856Zm1.578.72-.5-.5-1.414 1.415.5.5 1.414-1.414Zm-1.5 2.915 1.5-1.5-1.414-1.414-1.5 1.5 1.414 1.414Zm2.207 3.387-2-4.5-1.828.812 2 4.5 1.828-.812Zm-7.337 1.903 6.5-.5-.154-1.994-6.5.5.154 1.994Zm-4.309 5.643 5-6-1.536-1.28-5 6 1.536 1.28Zm19.495-6.611-20.5 5 .474 1.942 20.5-5-.474-1.942Zm-1.657-.582 1 2 1.788-.894-1-2-1.788.894ZM31.5 41h5v-2h-5v2Zm-2.894-4.553 2 4 1.788-.894-2-4-1.788.894Zm3.813-3.76-3.5 2.5 1.162 1.627 3.5-2.5-1.162-1.628Zm-1.347-1.316 1 2.5 1.856-.742-1-2.5-1.856.742ZM8.747 25.968l23 6 .504-1.936-23-6-.504 1.936Zm46.884 8.528 2 3.5 1.736-.992-2-3.5-1.736.992Zm7.52-.484-6.5-1-.304 1.976 6.5 1 .304-1.976ZM65.3 36.4l-1.5-2-1.6 1.2 1.5 2 1.6-1.2Zm-6.717 2.096 6-.5-.166-1.992-6 .5.166 1.992Zm.887 5.352 4 2.5 1.06-1.696-4-2.5-1.06 1.696Zm11.701-5.792-11.5 4 .657 1.889 11.5-4-.657-1.89Zm2.384 1.112-1.5-1-1.11 1.664 1.5 1 1.11-1.664Zm-9.034 7.185 9-5.5-1.043-1.706-9 5.5 1.044 1.706Zm20.166 2.874 9-8.5-1.374-1.454-9 8.5 1.374 1.454ZM87 47.5h-3v2h3v-2Zm6.909-5.306-7.5 5.5 1.182 1.612 7.5-5.5-1.182-1.612Zm-.616 1.013.5.5 1.414-1.414-.5-.5-1.414 1.414Zm2.692-3.065-2.5 1.5 1.03 1.715 2.5-1.5-1.03-1.715Zm.62-1.59-1 2 1.79.895 1-2-1.79-.894ZM100 38h-2.5v2h2.5v-2Zm-4.624 11.482 5.5-10-1.752-.964-5.5 10 1.752.964Zm.331-.69-.5-.5-1.414 1.415.5.5 1.414-1.414Zm2.142-3.051-3.5 3 1.302 1.518 3.5-3-1.302-1.518Zm1.783-3.237-2 3.5 1.736.992 2-3.5-1.736-.992Zm3.787-2.818-3.5 2.5 1.162 1.628 3.5-2.5-1.162-1.628Zm-.868-.37.5 1.5 1.898-.632-.5-1.5-1.898.632Zm8.133-3.765-7.5 2.5.632 1.898 7.5-2.5-.632-1.898ZM111.7 33.9l-1.5 2 1.6 1.2 1.5-2-1.6-1.2Zm-5.2 1.6h6v-2h-6v2Zm-.945.832 1.5-1-1.11-1.664-1.5 1 1.11 1.664Zm-1.762-.625.5.5 1.414-1.414-.5-.5-1.414 1.414Zm3.152-3.54-3 2 1.11 1.665 3-2-1.11-1.664Zm8.666-17.124-9 17.5 1.778.914 9-17.5-1.778-.914Zm-.111-.543v1h2v-1h-2Zm1.7-2.6-1.5 2 1.6 1.2 1.5-2-1.6-1.2Zm-1.443 1.07 2 .5.486-1.94-2-.5-.486 1.94Zm-4.669 3.839 5.5-4-1.176-1.618-5.5 4 1.176 1.618Zm-7.683 16.617 8-17-1.81-.852-8 17 1.81.852ZM101.1 35.3l2-1.5-1.2-1.6-2 1.5 1.2 1.6Zm-6.6.2h6v-2h-6v2Zm-.535 4.763 1.5-5.5-1.93-.526-1.5 5.5 1.93.526Zm14.699-6.277 9-1.5-.328-1.972-9 1.5.328 1.972ZM110.7 28.4l-3 4 1.6 1.2 3-4-1.6-1.2Zm5.41.106-4.5-.5-.22 1.988 4.5.5.22-1.988Zm2.19 2.394-1.5-2-1.6 1.2 1.5 2 1.6-1.2Zm-89.203-6.47 9.5 20 1.806-.86-9.5-20-1.806.86Zm5.561 2.317-4-3.5-1.317 1.506 4 3.5 1.317-1.506Zm1.158.304-1.5-.5-.632 1.898 1.5.5.632-1.898Zm1.612 3.078-1-2.5-1.856.742 1 2.5 1.856-.742Zm4.268.39-5-1-.392 1.962 5 1 .392-1.962Zm-5.005-3.93 4 5.5 1.618-1.177-4-5.5-1.618 1.176Zm-6.115-14.707 6 14.5 1.848-.764-6-14.5-1.848.764Zm1.217-2.09-1 1 1.414 1.415 1-1-1.414-1.414Zm7.914 6.5-6.5-6.5-1.414 1.415 6.5 6.5 1.414-1.414Zm5.242 15.392-5-15-1.898.632 5 15 1.898-.632Zm1.294-.154-2-.5-.486 1.94 2 .5.486-1.94Zm-2.512-3.051 1.312 4.312 1.914-.582-1.313-4.313-1.913.583Zm9.476 6.814-7.812-7.813-1.415 1.415 7.813 7.812 1.414-1.414ZM53.5 40v-4h-2v4h2Zm8.5-1h-9.5v2H62v-2Zm-3.793 6.207 4.5-4.5-1.414-1.414-4.5 4.5 1.414 1.414Zm-2.154-.313 1 .5.894-1.788-1-.5-.894 1.788ZM57.5 48v-4h-2v4h2Zm-1.106 2.447 1-2-1.788-.894-1 2 1.788.894Zm-2.884-7.306 1 7 1.98-.282-1-7-1.98.282ZM56 42h-1.5v2H56v-2Zm.945-.832-1.5 1 1.11 1.664 1.5-1-1.11-1.664ZM52.5 43h5v-2h-5v2Zm1 2.5V42h-2v3.5h2Zm-1.58 3.894 1.5-3.5-1.84-.788-1.5 3.5 1.84.788Zm-5.882-14.12 4 14 1.924-.549-4-14-1.924.55Zm-8.148-.28 9 1 .22-1.988-9-1-.22 1.988Zm3.543 5.147-2.5-6.5-1.866.718 2.5 6.5 1.866-.718Zm-.971 4.134 1-3.5-1.924-.55-1 3.5 1.924.55ZM51.5 32.42V35h2v-2.579h-2Zm-8.757-9.767 9 10.42 1.514-1.307-9-10.42-1.514 1.307Zm-.95-.947 1 1 1.414-1.414-1-1-1.414 1.414Zm3.414 4.752-1.75-5.75-1.914.582 1.75 5.75 1.914-.582Zm8 7.834-8.25-8.25-1.414 1.414 8.25 8.25 1.414-1.414ZM47 24v-1.75h-2V24h2Zm6.253 6.77-6.5-7.428-1.506 1.317 6.5 7.428 1.506-1.317ZM51.5 28v3.429h2V28h-2Zm-2.832-3.945 3 4.5 1.664-1.11-3-4.5-1.664 1.11Zm-3.004-.863 3.5 1.25.672-1.884-3.5-1.25-.672 1.884Zm37.306 14.55 1-4-1.94-.484-1 4 1.94.484Zm1.81 1.633-2-2.5-1.56 1.25 2 2.5 1.56-1.25Zm.906-3.456-2.5 3.5 1.628 1.162 2.5-3.5-1.628-1.162Zm2.341-10.15-2.5 10.5 1.946.463 2.5-10.5-1.946-.464Zm-1.86-2.214 2 3 1.665-1.11-2-3-1.664 1.11Zm-.189 9.151 2-9.5-1.956-.412-2 9.5 1.956.412Zm-2.53 1.688 2-1-.895-1.788-2 1 .894 1.788Z" fill="#000" mask="url(#b)"/>
    <defs>
        <linearGradient id="a" x1="69.75" y1="8" x2="69.75" y2="52" gradientUnits="userSpaceOnUse">
            <stop stop-color="#FFC700"/>
            <stop offset=".495" stop-color="red"/>
            <stop offset="1"/>
        </linearGradient>
    </defs>
</svg>
